<svg width="48" height="48" xmlns="http://www.w3.org/2000/svg">

 <g>
  <title>background</title>
  <rect fill="none" id="canvas_background" height="402" width="582" y="-1" x="-1"/>
 </g>
 <g>
  <title>Layer 1</title>
  <path id="svg_2" fill="#ffffff" d="m39.149,16.572c0,-7.919 -6.417,-14.337 -14.338,-14.337c-7.918,0 -14.337,6.418 -14.337,14.337c0,7.353 5.537,13.403 12.667,14.232l0,5.798l-1.193,0l0,9.164l1.193,0l3.342,0l1.193,0l0,-9.164l-1.193,0l0,-5.798c7.131,-0.829 12.666,-6.88 12.666,-14.232zm-14.254,12.108c-6.66,0 -12.059,-5.397 -12.059,-12.057c0,-6.659 5.399,-12.058 12.059,-12.058c6.659,0 12.058,5.399 12.058,12.058c-0.001,6.659 -5.399,12.057 -12.058,12.057z"/>
  <path id="svg_3" fill="#ffffff" d="m7.822,22.66c-0.769,-0.77 -1.209,-1.741 -1.328,-2.744l-0.011,-0.01l-0.018,0.014c-0.12,1.001 -0.56,1.969 -1.328,2.735c-0.767,0.768 -1.734,1.207 -2.734,1.328l-0.015,0.017l0.012,0.012c1.001,0.119 1.973,0.559 2.744,1.329c0.769,0.77 1.208,1.74 1.327,2.743l0.013,0.012l0.011,-0.012c0.119,-1.003 0.559,-1.974 1.328,-2.743s1.741,-1.209 2.744,-1.329l0.01,-0.012l-0.011,-0.012c-1.004,-0.118 -1.975,-0.558 -2.744,-1.328z"/>
  <path id="svg_4" fill="#ffffff" d="m3.046,18.577l0.008,-0.009c0.087,-0.74 0.413,-1.458 0.981,-2.026c0.568,-0.568 1.285,-0.894 2.027,-0.982l0.008,-0.008l-0.008,-0.008c-0.742,-0.088 -1.459,-0.414 -2.027,-0.981c-0.568,-0.568 -0.894,-1.287 -0.981,-2.027l-0.008,-0.009l-0.013,0.012c-0.088,0.74 -0.414,1.455 -0.98,2.021c-0.566,0.567 -1.282,0.892 -2.021,0.981l-0.011,0.011l0.009,0.008c0.74,0.088 1.457,0.414 2.026,0.982c0.567,0.568 0.893,1.286 0.98,2.026l0.01,0.009z"/>
  <path id="svg_5" fill="#ffffff" d="m47.965,32.676c-1.186,-0.139 -2.334,-0.659 -3.242,-1.568c-0.908,-0.91 -1.43,-2.057 -1.568,-3.241l-0.014,-0.014l-0.021,0.02c-0.14,1.181 -0.66,2.324 -1.566,3.229c-0.906,0.907 -2.05,1.428 -3.231,1.568l-0.018,0.021l0.014,0.013c1.184,0.141 2.331,0.661 3.239,1.571c0.911,0.907 1.43,2.055 1.568,3.239l0.016,0.014l0.014,-0.014c0.139,-1.185 0.66,-2.332 1.568,-3.239c0.908,-0.91 2.057,-1.431 3.242,-1.571l0.014,-0.013l-0.015,-0.015z"/>
  <path id="svg_6" fill="#ffffff" d="m34.881,14.392l-12.265,12.266c1.207,0.269 2.111,0.371 2.753,0.399c0.298,-0.011 0.594,-0.021 0.886,-0.056l9.006,-9.007c0.132,-1.496 -0.155,-2.834 -0.38,-3.602z"/>
  <path id="svg_7" fill="#ffffff" d="m31.876,9.766l-13.913,13.912c0.424,0.46 1.255,1.301 2.119,1.866l13.648,-13.65c-0.594,-0.91 -1.331,-1.658 -1.854,-2.128z"/>
 </g>
</svg>