<svg width="47.99999999999999" height="47.99999999999999" xmlns="http://www.w3.org/2000/svg">

 <g>
  <title>background</title>
  <rect fill="none" id="canvas_background" height="402" width="582" y="-1" x="-1"/>
 </g>
 <g>
  <title>Layer 1</title>
  <path id="svg_2" fill="#ffffff" d="m41.664,0.027l-25.234,0l-2.523,0l0,2.523l0,10.094l-7.57,0l-2.525,0l0,2.523l0,26.496c0,3.484 2.825,6.309 6.309,6.309l31.543,0l2.523,0l0,-2.523l0,-42.898l0,-2.524l-2.523,0zm-27.758,36.619l0,4.013l0,0.572l0,0.099l-0.048,0.813c-0.005,0.039 -0.006,0.081 -0.013,0.12l0,0.056l-0.005,0c-0.312,1.778 -1.853,3.131 -3.72,3.131c-1.768,0 -3.232,-1.22 -3.647,-2.861c-0.053,-0.26 -0.138,-0.718 -0.138,-0.924l0,-5.019l0,-21.478l7.57,0l0,21.478l0.001,0zm27.758,8.803l-26.524,0c0.798,-1.058 1.29,-2.358 1.29,-3.785l0,-39.113l25.234,0l0,42.898z"/>
  <rect id="svg_3" y="10.121" x="20.215" width="17.664" height="2.577" fill="#ffffff"/>
  <rect id="svg_4" y="16.43" x="20.215" width="17.664" height="2.577" fill="#ffffff"/>
  <rect id="svg_5" y="22.711" x="20.215" width="17.664" height="2.578" fill="#ffffff"/>
  <rect id="svg_6" y="29.074" x="20.215" width="17.664" height="2.576" fill="#ffffff"/>
  <rect id="svg_7" y="35.303" x="20.215" width="17.664" height="2.576" fill="#ffffff"/>
 </g>
</svg>